<?xml version="1.0" encoding="UTF-8"?>
<svg version="1.1" xmlns="http://www.w3.org/2000/svg" width="290" height="184">
<path d="M0 0 C0.88353149 -0.00570007 1.76706299 -0.01140015 2.67736816 -0.01727295 C4.53636494 -0.02667343 6.39537802 -0.0332371 8.25439453 -0.03710938 C11.08525641 -0.04684579 13.91540083 -0.07792832 16.74609375 -0.109375 C18.55989156 -0.11590349 20.37369452 -0.12115456 22.1875 -0.125 C23.02623657 -0.1373468 23.86497314 -0.1496936 24.72912598 -0.16241455 C30.15366369 -0.14200713 33.71662948 0.84563065 38.59375 3.203125 C40.71889243 3.78006761 40.71889243 3.78006761 42.64453125 4.01171875 C43.68504639 4.16894409 43.68504639 4.16894409 44.74658203 4.3293457 C45.81561768 4.48342896 45.81561768 4.48342896 46.90625 4.640625 C56.27729055 6.16536675 66.52054837 8.17025656 72.59375 16.203125 C74.46069832 20.83025984 74.82936062 24.41954674 73.59375 29.203125 C73.4945767 31.2857644 73.41288256 33.3692721 73.34375 35.453125 C72.72556841 43.70169723 69.92406043 48.15805566 64.09375 53.828125 C57.17264912 59.54555616 48.55974741 63.20938814 39.75 64.7734375 C37.37916493 65.24588652 35.19358235 65.98585261 32.90625 66.765625 C26.59963203 68.73831119 20.15870979 68.92879671 13.59375 69.203125 C18.88768549 76.38957849 24.03207017 82.94288268 32.59375 86.203125 C36.93732958 86.34324047 38.64578298 86.07209477 41.84375 83.140625 C42.42125 82.50125 42.99875 81.861875 43.59375 81.203125 C44.58375 81.203125 45.57375 81.203125 46.59375 81.203125 C46.29509762 85.98156305 43.89647343 88.68419392 40.96875 92.23828125 C39.53825606 94.28242459 39.15680924 95.80765367 38.59375 98.203125 C35.79824524 101.16307121 34.13819865 102.11562432 30.09375 102.765625 C25.70977552 102.06105767 24.29363319 100.44298483 21.59375 97.203125 C20.88992187 96.48640625 20.18609375 95.7696875 19.4609375 95.03125 C11.07229281 86.33806705 6.39546635 77.29842758 6.59375 65.203125 C7.50253906 64.98398438 8.41132812 64.76484375 9.34765625 64.5390625 C28.08599596 59.81123525 49.60858721 52.35688932 62.59375 37.203125 C64.95914646 32.99560263 66.42188538 30.06842033 65.59375 25.203125 C61.19991379 19.19821551 54.092802 16.23900254 47.13671875 14.1796875 C43.39791033 13.82545938 43.39791033 13.82545938 40.63671875 16.7109375 C39.66047365 17.89697932 38.70987675 19.1044412 37.78125 20.328125 C37.006604 21.29057129 37.006604 21.29057129 36.21630859 22.27246094 C34.65031748 24.23103365 33.11936687 26.21301453 31.59375 28.203125 C30.75995973 29.2688909 29.92538358 30.33404267 29.08984375 31.3984375 C27.4726645 33.48185459 25.86990135 35.57104525 24.28125 37.67578125 C22.31522633 40.27406027 20.30847478 42.83590994 18.28125 45.38671875 C12.24208245 53.00419115 6.39777396 60.69826807 0.96875 68.765625 C0.48422363 69.47871826 -0.00030273 70.19181152 -0.49951172 70.92651367 C-6.24263806 79.44506035 -6.24263806 79.44506035 -8.40625 89.203125 C-6.42625 90.193125 -4.44625 91.183125 -2.40625 92.203125 C-2.73625 93.853125 -3.06625 95.503125 -3.40625 97.203125 C-8.71650986 99.57876757 -13.81871628 99.63607255 -19.40625 98.203125 C-21.96962747 96.21321005 -22.37857971 95.30194747 -23.28125 92.078125 C-23.77873866 76.65597645 -9.45322517 61.13322282 -0.87304688 49.24023438 C0.51530751 47.3120671 1.8927755 45.37672687 3.265625 43.4375 C9.82408488 34.18552162 9.82408488 34.18552162 13.1796875 29.80859375 C13.59581299 29.26436768 14.01193848 28.7201416 14.44067383 28.15942383 C15.58035002 26.67686053 16.72930659 25.20144431 17.87890625 23.7265625 C19.4900056 21.35578761 19.95549738 19.91289927 20.59375 17.203125 C22.00390625 15.3515625 22.00390625 15.3515625 23.65625 13.578125 C26.04361708 11.26910323 26.04361708 11.26910323 26.59375 8.203125 C5.18455982 8.89838426 -14.15075207 11.24333612 -33.46875 21.140625 C-34.0884668 21.45217529 -34.70818359 21.76372559 -35.34667969 22.0847168 C-39.8597648 24.51127283 -42.47028598 27.1025258 -45.40625 31.203125 C-46.280188 34.42745627 -46.280188 34.42745627 -46.40625 37.203125 C-50.10939906 36.70269945 -52.09359981 36.19362094 -54.40625 33.203125 C-55.31529469 28.44497218 -54.93589666 24.30479005 -52.84375 19.953125 C-39.67368558 5.09459079 -19.26076303 0.09759428 0 0 Z " fill="#FFFFFF" transform="translate(112.40625,81.796875)"/>
<path d="M0 0 C5.14900428 -0.46620763 9.59827554 -0.78604637 14.0625 2.125 C16.25232025 3.99078957 17.0782458 5.16004823 18.375 7.8125 C17.77299053 12.92958051 14.51559808 15.42430623 11 19 C9.69031281 20.42530646 8.38091257 21.85089906 7.07861328 23.28295898 C5.66804855 24.83388704 4.25113105 26.37875506 2.83203125 27.921875 C2.35975098 28.43556641 1.8874707 28.94925781 1.40087891 29.47851562 C0.06450899 30.92993725 -1.27432442 32.3790895 -2.61328125 33.828125 C-8.89668921 40.66853802 -14.78336488 47.77259763 -20.61328125 55 C-23.15203814 58.0656687 -25.75428491 60.69747402 -28.8125 63.25 C-33.91301906 67.56127046 -37.90271476 72.75509551 -42 78 C-41.11199707 77.86368164 -41.11199707 77.86368164 -40.20605469 77.72460938 C-29.46331945 76.11009425 -18.81670159 74.70394005 -7.9375 74.6875 C-7.12442383 74.68234375 -6.31134766 74.6771875 -5.47363281 74.671875 C-0.96735352 74.72495696 2.81575128 75.14103408 7 77 C9.69282313 80.03805687 10.95118023 81.85273543 11.125 85.9375 C9.59208972 90.11042242 7.42466557 93.15004842 4 96 C0.625 96.9375 0.625 96.9375 -2 97 C-1.67 94.36 -1.34 91.72 -1 89 C-15.55110417 84.14963194 -33.75218489 91.1009674 -47.72680664 95.36743164 C-54.36991458 97.21602929 -54.36991458 97.21602929 -57.1875 96.25 C-59 95 -59 95 -61 92 C-61.63418449 85.79908496 -60.71251658 82.42416667 -56.8125 77.5 C-56.1462561 76.61441406 -56.1462561 76.61441406 -55.46655273 75.7109375 C-54.00297969 73.78601805 -52.50802733 71.89026377 -51 70 C-50.48115234 69.34902344 -49.96230469 68.69804688 -49.42773438 68.02734375 C-46.71658591 64.64420123 -43.97798457 61.28472562 -41.22265625 57.9375 C-38.26007519 54.33348099 -35.36818547 50.67934171 -32.5 47 C-28.55849963 41.95119089 -24.54960887 36.96248176 -20.5 32 C-16.22788723 26.76241645 -11.9910735 21.50009813 -7.8125 16.1875 C-7.35488281 15.60677734 -6.89726563 15.02605469 -6.42578125 14.42773438 C-2.53557685 9.46416565 -0.71668742 6.33073887 0 0 Z " fill="#FFFFFF" transform="translate(61,0)"/>
<path d="M0 0 C2.4375 0.75 2.4375 0.75 5 2 C5.8125 3.84375 5.8125 3.84375 6 6 C5.00390625 7.921875 5.00390625 7.921875 3.5625 9.75 C3.08941406 10.36359375 2.61632812 10.9771875 2.12890625 11.609375 C1.75636719 12.06828125 1.38382813 12.5271875 1 13 C7.69628006 10.09222077 12.70348687 6.83285039 17.796875 1.57421875 C20.71017998 -0.5074513 22.49554552 -0.47010975 26 0 C28.375 2.5 28.375 2.5 30 5 C29.3125 7.4375 29.3125 7.4375 28 10 C25.375 10.8125 25.375 10.8125 23 11 C23.33 9.68 23.66 8.36 24 7 C15.24895909 13.35606622 15.24895909 13.35606622 11 23 C15.66633571 20.55881511 20.08378002 18.04847621 24.25 14.8125 C28.53354566 11.50635067 31.48739552 10 37 10 C37.226875 9.443125 37.45375 8.88625 37.6875 8.3125 C39.45492101 5.19847251 41.16309401 3.20648244 44 1 C48.52567192 0.83836886 50.41116875 1.52392367 53.9375 4.375 C56 7 56 7 56 10 C55.01 9.67 54.02 9.34 53 9 C53 8.34 53 7.68 53 7 C49.43235179 7.57619097 47.74840503 8.86969484 45.25 11.4375 C44.63640625 12.05496094 44.0228125 12.67242187 43.390625 13.30859375 C41.78830608 14.89253519 41.78830608 14.89253519 42 17 C42.61875 16.505 43.2375 16.01 43.875 15.5 C46 14 46 14 48 14 C48 13.34 48 12.68 48 12 C49.8125 11.375 49.8125 11.375 52 11 C52.99 11.66 53.98 12.32 55 13 C55.29296875 15.6015625 55.29296875 15.6015625 55.1875 18.625 C55.14689453 20.12933594 55.14689453 20.12933594 55.10546875 21.6640625 C55.07066406 22.43492188 55.03585938 23.20578125 55 24 C56.32 24 57.64 24 59 24 C58.505 25.485 58.505 25.485 58 27 C55.69 27.33 53.38 27.66 51 28 C48.67210485 25.16604069 47.92622107 23.70488428 47 20 C43.04 23.3 39.08 26.6 35 30 C31 28 31 28 29.6015625 26.234375 C28.71549054 22.94325056 29.87647111 21.24705777 31.375 18.25 C31.85710937 17.26515625 32.33921875 16.2803125 32.8359375 15.265625 C33.22007812 14.51796875 33.60421875 13.7703125 34 13 C33.38253906 13.49628906 32.76507813 13.99257813 32.12890625 14.50390625 C30.3575328 15.92477962 28.58256207 17.34117589 26.8046875 18.75390625 C25.0236703 20.18020832 23.25619673 21.62372218 21.5078125 23.08984375 C20.35925781 24.03537109 20.35925781 24.03537109 19.1875 25 C18.50042969 25.5775 17.81335938 26.155 17.10546875 26.75 C14.49060752 28.30242225 12.99418281 28.4353416 10 28 C7.125 25.375 7.125 25.375 5 22 C5.1875 18.625 5.1875 18.625 6 16 C0.52964787 19.79037089 -3.89962427 23.75027653 -8 29 C-11.875 27.25 -11.875 27.25 -13 25 C-12.34 23.02 -11.68 21.04 -11 19 C-13.97 22.3 -16.94 25.6 -20 29 C-24 27 -24 27 -25.0234375 24.875 C-24.98790212 20.51599291 -22.88000169 17.63753249 -20.625 14 C-16.78359151 7.90643902 -16.78359151 7.90643902 -15 1 C-12.03 1.495 -12.03 1.495 -9 2 C-8.11144836 4.99553637 -7.80394203 6.51639033 -8.99609375 9.45703125 C-9.47175781 10.23433594 -9.94742188 11.01164062 -10.4375 11.8125 C-10.91058594 12.60269531 -11.38367188 13.39289062 -11.87109375 14.20703125 C-12.42990234 15.09455078 -12.42990234 15.09455078 -13 16 C-5.94465636 8.43010549 -5.94465636 8.43010549 0 0 Z " fill="#FFFFFF" transform="translate(99,48)"/>
<path d="M0 0 C3.37462715 0.54723683 5.08235 1.0549 8 3 C8.625 5.25 8.625 5.25 8 8 C6.34744862 9.67406898 4.61428288 11.07046066 2.7265625 12.47265625 C0.82132991 14.15805431 -0.0110732 15.6775204 -1 18 C-0.01 17.34 0.98 16.68 2 16 C4.5625 15.6875 4.5625 15.6875 7 16 C9 19 9 19 8.8671875 21.8515625 C6.1283474 31.79527928 -3.7071888 38.69827113 -12 44 C-14.52475462 45.26237731 -16.31200466 45.09856404 -19.125 45.0625 C-20.03507812 45.05347656 -20.94515625 45.04445312 -21.8828125 45.03515625 C-22.58148438 45.02355469 -23.28015625 45.01195312 -24 45 C-25.08099139 38.73024997 -23.99281824 35.45008148 -20.42333984 30.35986328 C-18.32978565 27.53230826 -16.19223611 24.75203926 -14 22 C-16.31 21.67 -18.62 21.34 -21 21 C-21.24492187 21.886875 -21.48984375 22.77375 -21.7421875 23.6875 C-24.68508639 31.43774305 -32.64044664 39.13998936 -40 43 C-43.75 43.6875 -43.75 43.6875 -47 43 C-49.5 40.875 -49.5 40.875 -51 38 C-51.25992961 32.15158378 -47.7130818 28.16164202 -44 24 C-41.78012751 21.82891592 -39.46561128 19.88443148 -37 18 C-36.236875 17.38125 -35.47375 16.7625 -34.6875 16.125 C-30.62907182 14.42612309 -26.33214573 14.21791352 -22 15 C-21.01 16.485 -21.01 16.485 -20 18 C-16.01287223 19.60050596 -16.01287223 19.60050596 -12 19 C-6.79412883 14.89449518 -2.0279372 9.87702204 -0.375 3.3125 C-0.189375 1.6728125 -0.189375 1.6728125 0 0 Z M-31 20 C-37.06813799 24.75994201 -42.42813363 30.07421164 -46 37 C-45.67 37.99 -45.34 38.98 -45 40 C-38.50903494 34.37361021 -32.55113536 28.55902307 -27 22 C-28.32 21.34 -29.64 20.68 -31 20 Z M-12 30 C-16.8631244 34.87748925 -16.8631244 34.87748925 -19 41 C-11.81169627 38.99396175 -7.9803638 35.37369104 -3.6875 29.375 C-2.99011719 28.41335937 -2.29273438 27.45171875 -1.57421875 26.4609375 C0.17962132 24.2060967 0.17962132 24.2060967 0 22 C-4.54052898 22 -8.79175379 27.09775641 -12 30 Z " fill="#FFFFFF" transform="translate(231,117)"/>
<path d="M0 0 C3.37462715 0.54723683 5.08235 1.0549 8 3 C8.625 5.25 8.625 5.25 8 8 C6.34744862 9.67406898 4.61428288 11.07046066 2.7265625 12.47265625 C0.82132991 14.15805431 -0.0110732 15.6775204 -1 18 C-0.01 17.34 0.98 16.68 2 16 C4.5625 15.6875 4.5625 15.6875 7 16 C9 19 9 19 8.8671875 21.8515625 C6.1283474 31.79527928 -3.7071888 38.69827113 -12 44 C-14.52475462 45.26237731 -16.31200466 45.09856404 -19.125 45.0625 C-20.03507813 45.05347656 -20.94515625 45.04445312 -21.8828125 45.03515625 C-22.58148438 45.02355469 -23.28015625 45.01195312 -24 45 C-24.84945813 36.73633932 -22.66304069 32.97937754 -17.5625 26.625 C-16.92739502 25.79718018 -16.29229004 24.96936035 -15.63793945 24.11645508 C-11.45981769 18.70601766 -7.1313826 13.42049255 -2.57421875 8.32421875 C-0.6948911 5.54952904 -0.32902481 3.30455351 0 0 Z M-12 30 C-16.8631244 34.87748925 -16.8631244 34.87748925 -19 41 C-11.81169627 38.99396175 -7.9803638 35.37369104 -3.6875 29.375 C-2.99011719 28.41335937 -2.29273438 27.45171875 -1.57421875 26.4609375 C0.17962132 24.2060967 0.17962132 24.2060967 0 22 C-4.54052898 22 -8.79175379 27.09775641 -12 30 Z " fill="#FFFFFF" transform="translate(259,117)"/>
<path d="M0 0 C2.6875 2.6875 2.6875 2.6875 4 6 C3.81510229 9.28707036 3.47507235 10.57141222 1.00390625 12.80078125 C0.19824219 13.29964844 -0.60742188 13.79851563 -1.4375 14.3125 C-2.24058594 14.82425781 -3.04367188 15.33601563 -3.87109375 15.86328125 C-6 17 -6 17 -8 17 C-6.880462 14.48103951 -5.68018448 12.60265345 -3.9375 10.4375 C-1.83615651 8.07973981 -1.83615651 8.07973981 -1 5 C-2.65420222 5.53739056 -4.29833295 6.10586008 -5.9375 6.6875 C-6.85402344 7.00074219 -7.77054688 7.31398438 -8.71484375 7.63671875 C-11.19699823 8.80811191 -11.19699823 8.80811191 -11.97265625 11.36328125 C-12.00574661 14.55413761 -11.24657682 15.86155416 -9.5 18.5 C-7.70285303 21.21483905 -6.94824574 22.37155539 -7.21875 25.65625 C-8 28 -8 28 -10 30 C-16.09883958 29.88271462 -18.76393342 28.02942919 -23 24 C-22.67 22.68 -22.34 21.36 -22 20 C-21.46375 20.45375 -20.9275 20.9075 -20.375 21.375 C-17.68301698 23.21688312 -15.11479612 24.07971933 -12 25 C-13.68060468 21.99260215 -15.34699923 19.62072177 -17.6875 17.0625 C-20 14 -20 14 -20.625 11 C-19.76538617 6.8738536 -17.98968636 4.92324888 -15 2 C-10.6356347 -0.74331533 -4.99090265 -0.9662522 0 0 Z " fill="#FFFFFF" transform="translate(183,48)"/>
<path d="M0 0 C2.375 0.25 2.375 0.25 5 1 C5.66 2.32 6.32 3.64 7 5 C5.02 7.64 3.04 10.28 1 13 C1.75925781 12.55527344 2.51851563 12.11054688 3.30078125 11.65234375 C4.29464844 11.08644531 5.28851563 10.52054688 6.3125 9.9375 C7.29863281 9.36902344 8.28476562 8.80054688 9.30078125 8.21484375 C12 7 12 7 15 8 C13.73526463 11.79420612 12.52006756 12.13412469 9.125 14.125 C3.72130951 17.41236262 -0.95367648 21.19162108 -5.6875 25.375 C-6.450625 25.91125 -7.21375 26.4475 -8 27 C-8.99 26.67 -9.98 26.34 -11 26 C-12.36572354 21.90282938 -11.08488616 20.26000035 -9.31640625 16.4765625 C-7.56861434 13.18843172 -5.53094604 10.16764472 -3.3671875 7.140625 C-1.89916384 4.84211939 -0.9381249 2.55527354 0 0 Z " fill="#FFFFFF" transform="translate(275,133)"/>
<path d="M0 0 C-0.33 1.65 -0.66 3.3 -1 5 C-2.8125 5.6875 -2.8125 5.6875 -5 6 C-6.75 4.6875 -6.75 4.6875 -8 3 C-8 2.34 -8 1.68 -8 1 C-5.10765685 0.17361624 -3.11257569 0 0 0 Z " fill="#FFFFFF" transform="translate(286,125)"/>
</svg>
